<svg xmlns="http://www.w3.org/2000/svg" viewBox="0 0 778.44 660.94">
  <title>Alessio Marchi Logo</title>
  <path
    fill="#7c35f1"
    d="M818.8,187.06H690.08a24.29,24.29,0,0,0-20.44,11.14L275,810.51A24.32,24.32,0,0,0,295.48,848H379.6A24.34,24.34,0,0,0,400,836.86L720.18,340.08c13.14-20.39,44.76-11.09,44.76,13.17V578.89a24.31,24.31,0,0,1-24.31,24.32H656a24.32,24.32,0,0,0-20.47,37.44L686,719.3a24.31,24.31,0,0,0,20.47,11.2h34.2a24.31,24.31,0,0,1,24.31,24.32v68.86A24.32,24.32,0,0,0,789.26,848h68.87a24.31,24.31,0,0,0,24.31-24.32V211.37a24.3,24.3,0,0,0-24.31-24.31Z"
    transform="translate(-104 -187.06)"
  />
  <path
    d="M167.65,187.06h129a23.71,23.71,0,0,1,20,10.92L464.45,428.59a23.7,23.7,0,0,1-.23,26L421.1,519.23a23.73,23.73,0,0,1-39.69-.31L265.17,338.42c-12.82-19.89-43.67-10.82-43.67,12.85v473A23.72,23.72,0,0,1,197.78,848H127.72A23.72,23.72,0,0,1,104,824.28V210.78a23.72,23.72,0,0,1,23.72-23.72Z"
    transform="translate(-104 -187.06)"
    fill="#e8e9e9"
  />
</svg>
